<mxfile host="app.diagrams.net" modified="2022-05-19T09:27:32.604Z" agent="5.0 (Windows NT 10.0; Win64; x64) AppleWebKit/537.36 (KHTML, like Gecko) Chrome/101.0.0.0 Safari/537.36" etag="5Os5vILS750fpVFQQQ5_" version="18.0.7" type="github">
  <diagram id="bdKygFuUFlMJimK569-D" name="第 1 页">
    <mxGraphModel dx="1422" dy="706" grid="1" gridSize="10" guides="1" tooltips="1" connect="1" arrows="1" fold="1" page="1" pageScale="1" pageWidth="850" pageHeight="1100" math="0" shadow="0">
      <root>
        <mxCell id="0" />
        <mxCell id="1" parent="0" />
        <UserObject label="" plantUmlData="{&quot;data&quot;:&quot;\n@startuml\n\nactor       用户 as User\nparticipant PA as PA\nparticipant 应用前端 as FE\nparticipant 服务后端 as BE\nparticipant 第三方应用 as TA\nparticipant WindowServer as WS\n\nUser    -&gt; PA:      选择Study\nPA      -&gt; FE:      选择高级应用，进入应用\n\ngroup license 校验\n\nFE      -&gt; FE:      FE内部进行license的校验\n\nend\n\nFE      -&gt; BE:      调用接口，通知服务后端准备数据\nBE      -&gt; CGS:     DicomWeb接口\nCGS     -&gt; BE:      返回DICOM数据\nBE      -&gt; FE:      返回RDP连接信息，以及其他信息\nFE      -&gt; FE:      选择具体的三方应用\nFE      -&gt; WS:      通过RDP启动三方应用以及通过命令行输入参数\nFE      -&gt; WS:      共享本地盘符，作为保存结果的输出路径\nTA      -&gt; FE:      显示远程三方应用\n\ngroup save\n    User    -&gt; TA:      保存结果到共享目录\n    TA      -&gt; FE:      通过共享保存到FE磁盘\n    FE      -&gt; FE:      归档，从共享目录读取进行结果的归档保存\nend\n\ngroup Quit\n    User    -&gt; FE:      退出应用\n    FE      -&gt; WS:      关闭会话\n    FE      -&gt; BE:      通知后端，应用清理\n    FE      -&gt; FE:      前端应用退出\nend\n\n@enduml\n&quot;,&quot;format&quot;:&quot;svg&quot;}" id="N7KzoPcJeS-iDC2joIVD-2">
          <mxCell style="shape=image;noLabel=1;verticalAlign=top;aspect=fixed;imageAspect=0;image=data:image/svg+xml,PD94bWwgdmVyc2lvbj0iMS4wIiBlbmNvZGluZz0iVVRGLTgiIHN0YW5kYWxvbmU9Im5vIj8+PHN2ZyB4bWxucz0iaHR0cDovL3d3dy53My5vcmcvMjAwMC9zdmciIHhtbG5zOnhsaW5rPSJodHRwOi8vd3d3LnczLm9yZy8xOTk5L3hsaW5rIiBjb250ZW50U3R5bGVUeXBlPSJ0ZXh0L2NzcyIgaGVpZ2h0PSI4MjNweCIgcHJlc2VydmVBc3BlY3RSYXRpbz0ibm9uZSIgc3R5bGU9IndpZHRoOjgzOHB4O2hlaWdodDo4MjNweDtiYWNrZ3JvdW5kOiNGRkZGRkY7IiB2ZXJzaW9uPSIxLjEiIHZpZXdCb3g9IjAgMCA4MzggODIzIiB3aWR0aD0iODM4cHgiIHpvb21BbmRQYW49Im1hZ25pZnkiPjxkZWZzLz48Zz48cmVjdCBoZWlnaHQ9IjU2LjgyODEiIHN0eWxlPSJzdHJva2U6IzAwMDAwMDtzdHJva2Utd2lkdGg6MS41O2ZpbGw6bm9uZTsiIHdpZHRoPSIyMTYiIHg9IjI0MyIgeT0iMTUyLjgxMjUiLz48cmVjdCBoZWlnaHQ9IjExMi42NTYzIiBzdHlsZT0ic3Ryb2tlOiMwMDAwMDA7c3Ryb2tlLXdpZHRoOjEuNTtmaWxsOm5vbmU7IiB3aWR0aD0iNjc4IiB4PSIxMCIgeT0iNDU5Ljk1MzEiLz48cmVjdCBoZWlnaHQ9IjE0MC41NzAzIiBzdHlsZT0ic3Ryb2tlOiMwMDAwMDA7c3Ryb2tlLXdpZHRoOjEuNTtmaWxsOm5vbmU7IiB3aWR0aD0iNzg3IiB4PSIxMCIgeT0iNTg2LjYwOTQiLz48bGluZSBzdHlsZT0ic3Ryb2tlOiMxODE4MTg7c3Ryb2tlLXdpZHRoOjAuNTtmaWxsOm5vbmU7c3Ryb2tlLWRhc2hhcnJheTo1LjAsNS4wOyIgeDE9IjM3IiB4Mj0iMzciIHkxPSI3OS45ODQ0IiB5Mj0iNzQ0LjE3OTciLz48bGluZSBzdHlsZT0ic3Ryb2tlOiMxODE4MTg7c3Ryb2tlLXdpZHRoOjAuNTtmaWxsOm5vbmU7c3Ryb2tlLWRhc2hhcnJheTo1LjAsNS4wOyIgeDE9IjEyMSIgeDI9IjEyMSIgeTE9Ijc5Ljk4NDQiIHkyPSI3NDQuMTc5NyIvPjxsaW5lIHN0eWxlPSJzdHJva2U6IzE4MTgxODtzdHJva2Utd2lkdGg6MC41O2ZpbGw6bm9uZTtzdHJva2UtZGFzaGFycmF5OjUuMCw1LjA7IiB4MT0iMjg4IiB4Mj0iMjg4IiB5MT0iNzkuOTg0NCIgeTI9Ijc0NC4xNzk3Ii8+PGxpbmUgc3R5bGU9InN0cm9rZTojMTgxODE4O3N0cm9rZS13aWR0aDowLjU7ZmlsbDpub25lO3N0cm9rZS1kYXNoYXJyYXk6NS4wLDUuMDsiIHgxPSI1NDkiIHgyPSI1NDkiIHkxPSI3OS45ODQ0IiB5Mj0iNzQ0LjE3OTciLz48bGluZSBzdHlsZT0ic3Ryb2tlOiMxODE4MTg7c3Ryb2tlLXdpZHRoOjAuNTtmaWxsOm5vbmU7c3Ryb2tlLWRhc2hhcnJheTo1LjAsNS4wOyIgeDE9IjYzNiIgeDI9IjYzNiIgeTE9Ijc5Ljk4NDQiIHkyPSI3NDQuMTc5NyIvPjxsaW5lIHN0eWxlPSJzdHJva2U6IzE4MTgxODtzdHJva2Utd2lkdGg6MC41O2ZpbGw6bm9uZTtzdHJva2UtZGFzaGFycmF5OjUuMCw1LjA7IiB4MT0iNzM3IiB4Mj0iNzM3IiB5MT0iNzkuOTg0NCIgeTI9Ijc0NC4xNzk3Ii8+PGxpbmUgc3R5bGU9InN0cm9rZTojMTgxODE4O3N0cm9rZS13aWR0aDowLjU7ZmlsbDpub25lO3N0cm9rZS1kYXNoYXJyYXk6NS4wLDUuMDsiIHgxPSI4MTQiIHgyPSI4MTQiIHkxPSI3OS45ODQ0IiB5Mj0iNzQ0LjE3OTciLz48dGV4dCBmaWxsPSIjMDAwMDAwIiBmb250LWZhbWlseT0ic2Fucy1zZXJpZiIgZm9udC1zaXplPSIxNCIgbGVuZ3RoQWRqdXN0PSJzcGFjaW5nIiB0ZXh0TGVuZ3RoPSIyOCIgeD0iMjAiIHk9Ijc4LjIzNDQiPueUqOaItzwvdGV4dD48ZWxsaXBzZSBjeD0iMzciIGN5PSIxMy41IiBmaWxsPSIjRTJFMkYwIiByeD0iOCIgcnk9IjgiIHN0eWxlPSJzdHJva2U6IzE4MTgxODtzdHJva2Utd2lkdGg6MC41OyIvPjxwYXRoIGQ9Ik0zNywyMS41IEwzNyw0OC41IE0yNCwyOS41IEw1MCwyOS41IE0zNyw0OC41IEwyNCw2My41IE0zNyw0OC41IEw1MCw2My41ICIgZmlsbD0ibm9uZSIgc3R5bGU9InN0cm9rZTojMTgxODE4O3N0cm9rZS13aWR0aDowLjU7Ii8+PHRleHQgZmlsbD0iIzAwMDAwMCIgZm9udC1mYW1pbHk9InNhbnMtc2VyaWYiIGZvbnQtc2l6ZT0iMTQiIGxlbmd0aEFkanVzdD0ic3BhY2luZyIgdGV4dExlbmd0aD0iMjgiIHg9IjIwIiB5PSI3NTYuNDE0MSI+55So5oi3PC90ZXh0PjxlbGxpcHNlIGN4PSIzNyIgY3k9Ijc2Ni42NjQxIiBmaWxsPSIjRTJFMkYwIiByeD0iOCIgcnk9IjgiIHN0eWxlPSJzdHJva2U6IzE4MTgxODtzdHJva2Utd2lkdGg6MC41OyIvPjxwYXRoIGQ9Ik0zNyw3NzQuNjY0MSBMMzcsODAxLjY2NDEgTTI0LDc4Mi42NjQxIEw1MCw3ODIuNjY0MSBNMzcsODAxLjY2NDEgTDI0LDgxNi42NjQxIE0zNyw4MDEuNjY0MSBMNTAsODE2LjY2NDEgIiBmaWxsPSJub25lIiBzdHlsZT0ic3Ryb2tlOiMxODE4MTg7c3Ryb2tlLXdpZHRoOjAuNTsiLz48cmVjdCBmaWxsPSIjRTJFMkYwIiBoZWlnaHQ9IjI4Ljk4NDQiIHJ4PSIyLjUiIHJ5PSIyLjUiIHN0eWxlPSJzdHJva2U6IzE4MTgxODtzdHJva2Utd2lkdGg6MC41OyIgd2lkdGg9IjI4IiB4PSIxMDciIHk9IjUwIi8+PHRleHQgZmlsbD0iIzAwMDAwMCIgZm9udC1mYW1pbHk9InNhbnMtc2VyaWYiIGZvbnQtc2l6ZT0iMTQiIGxlbmd0aEFkanVzdD0ic3BhY2luZyIgdGV4dExlbmd0aD0iMTQiIHg9IjExNCIgeT0iNzAuMjM0NCI+UEE8L3RleHQ+PHJlY3QgZmlsbD0iI0UyRTJGMCIgaGVpZ2h0PSIyOC45ODQ0IiByeD0iMi41IiByeT0iMi41IiBzdHlsZT0ic3Ryb2tlOiMxODE4MTg7c3Ryb2tlLXdpZHRoOjAuNTsiIHdpZHRoPSIyOCIgeD0iMTA3IiB5PSI3NDMuMTc5NyIvPjx0ZXh0IGZpbGw9IiMwMDAwMDAiIGZvbnQtZmFtaWx5PSJzYW5zLXNlcmlmIiBmb250LXNpemU9IjE0IiBsZW5ndGhBZGp1c3Q9InNwYWNpbmciIHRleHRMZW5ndGg9IjE0IiB4PSIxMTQiIHk9Ijc2My40MTQxIj5QQTwvdGV4dD48cmVjdCBmaWxsPSIjRTJFMkYwIiBoZWlnaHQ9IjI4Ljk4NDQiIHJ4PSIyLjUiIHJ5PSIyLjUiIHN0eWxlPSJzdHJva2U6IzE4MTgxODtzdHJva2Utd2lkdGg6MC41OyIgd2lkdGg9IjcwIiB4PSIyNTMiIHk9IjUwIi8+PHRleHQgZmlsbD0iIzAwMDAwMCIgZm9udC1mYW1pbHk9InNhbnMtc2VyaWYiIGZvbnQtc2l6ZT0iMTQiIGxlbmd0aEFkanVzdD0ic3BhY2luZyIgdGV4dExlbmd0aD0iNTYiIHg9IjI2MCIgeT0iNzAuMjM0NCI+5bqU55So5YmN56uvPC90ZXh0PjxyZWN0IGZpbGw9IiNFMkUyRjAiIGhlaWdodD0iMjguOTg0NCIgcng9IjIuNSIgcnk9IjIuNSIgc3R5bGU9InN0cm9rZTojMTgxODE4O3N0cm9rZS13aWR0aDowLjU7IiB3aWR0aD0iNzAiIHg9IjI1MyIgeT0iNzQzLjE3OTciLz48dGV4dCBmaWxsPSIjMDAwMDAwIiBmb250LWZhbWlseT0ic2Fucy1zZXJpZiIgZm9udC1zaXplPSIxNCIgbGVuZ3RoQWRqdXN0PSJzcGFjaW5nIiB0ZXh0TGVuZ3RoPSI1NiIgeD0iMjYwIiB5PSI3NjMuNDE0MSI+5bqU55So5YmN56uvPC90ZXh0PjxyZWN0IGZpbGw9IiNFMkUyRjAiIGhlaWdodD0iMjguOTg0NCIgcng9IjIuNSIgcnk9IjIuNSIgc3R5bGU9InN0cm9rZTojMTgxODE4O3N0cm9rZS13aWR0aDowLjU7IiB3aWR0aD0iNzAiIHg9IjUxNCIgeT0iNTAiLz48dGV4dCBmaWxsPSIjMDAwMDAwIiBmb250LWZhbWlseT0ic2Fucy1zZXJpZiIgZm9udC1zaXplPSIxNCIgbGVuZ3RoQWRqdXN0PSJzcGFjaW5nIiB0ZXh0TGVuZ3RoPSI1NiIgeD0iNTIxIiB5PSI3MC4yMzQ0Ij7mnI3liqHlkI7nq688L3RleHQ+PHJlY3QgZmlsbD0iI0UyRTJGMCIgaGVpZ2h0PSIyOC45ODQ0IiByeD0iMi41IiByeT0iMi41IiBzdHlsZT0ic3Ryb2tlOiMxODE4MTg7c3Ryb2tlLXdpZHRoOjAuNTsiIHdpZHRoPSI3MCIgeD0iNTE0IiB5PSI3NDMuMTc5NyIvPjx0ZXh0IGZpbGw9IiMwMDAwMDAiIGZvbnQtZmFtaWx5PSJzYW5zLXNlcmlmIiBmb250LXNpemU9IjE0IiBsZW5ndGhBZGp1c3Q9InNwYWNpbmciIHRleHRMZW5ndGg9IjU2IiB4PSI1MjEiIHk9Ijc2My40MTQxIj7mnI3liqHlkI7nq688L3RleHQ+PHJlY3QgZmlsbD0iI0UyRTJGMCIgaGVpZ2h0PSIyOC45ODQ0IiByeD0iMi41IiByeT0iMi41IiBzdHlsZT0ic3Ryb2tlOiMxODE4MTg7c3Ryb2tlLXdpZHRoOjAuNTsiIHdpZHRoPSI4NCIgeD0iNTk0IiB5PSI1MCIvPjx0ZXh0IGZpbGw9IiMwMDAwMDAiIGZvbnQtZmFtaWx5PSJzYW5zLXNlcmlmIiBmb250LXNpemU9IjE0IiBsZW5ndGhBZGp1c3Q9InNwYWNpbmciIHRleHRMZW5ndGg9IjcwIiB4PSI2MDEiIHk9IjcwLjIzNDQiPuesrOS4ieaWueW6lOeUqDwvdGV4dD48cmVjdCBmaWxsPSIjRTJFMkYwIiBoZWlnaHQ9IjI4Ljk4NDQiIHJ4PSIyLjUiIHJ5PSIyLjUiIHN0eWxlPSJzdHJva2U6IzE4MTgxODtzdHJva2Utd2lkdGg6MC41OyIgd2lkdGg9Ijg0IiB4PSI1OTQiIHk9Ijc0My4xNzk3Ii8+PHRleHQgZmlsbD0iIzAwMDAwMCIgZm9udC1mYW1pbHk9InNhbnMtc2VyaWYiIGZvbnQtc2l6ZT0iMTQiIGxlbmd0aEFkanVzdD0ic3BhY2luZyIgdGV4dExlbmd0aD0iNzAiIHg9IjYwMSIgeT0iNzYzLjQxNDEiPuesrOS4ieaWueW6lOeUqDwvdGV4dD48cmVjdCBmaWxsPSIjRTJFMkYwIiBoZWlnaHQ9IjI4Ljk4NDQiIHJ4PSIyLjUiIHJ5PSIyLjUiIHN0eWxlPSJzdHJva2U6IzE4MTgxODtzdHJva2Utd2lkdGg6MC41OyIgd2lkdGg9Ijk5IiB4PSI2ODgiIHk9IjUwIi8+PHRleHQgZmlsbD0iIzAwMDAwMCIgZm9udC1mYW1pbHk9InNhbnMtc2VyaWYiIGZvbnQtc2l6ZT0iMTQiIGxlbmd0aEFkanVzdD0ic3BhY2luZyIgdGV4dExlbmd0aD0iODUiIHg9IjY5NSIgeT0iNzAuMjM0NCI+V2luZG93U2VydmVyPC90ZXh0PjxyZWN0IGZpbGw9IiNFMkUyRjAiIGhlaWdodD0iMjguOTg0NCIgcng9IjIuNSIgcnk9IjIuNSIgc3R5bGU9InN0cm9rZTojMTgxODE4O3N0cm9rZS13aWR0aDowLjU7IiB3aWR0aD0iOTkiIHg9IjY4OCIgeT0iNzQzLjE3OTciLz48dGV4dCBmaWxsPSIjMDAwMDAwIiBmb250LWZhbWlseT0ic2Fucy1zZXJpZiIgZm9udC1zaXplPSIxNCIgbGVuZ3RoQWRqdXN0PSJzcGFjaW5nIiB0ZXh0TGVuZ3RoPSI4NSIgeD0iNjk1IiB5PSI3NjMuNDE0MSI+V2luZG93U2VydmVyPC90ZXh0PjxyZWN0IGZpbGw9IiNFMkUyRjAiIGhlaWdodD0iMjguOTg0NCIgcng9IjIuNSIgcnk9IjIuNSIgc3R5bGU9InN0cm9rZTojMTgxODE4O3N0cm9rZS13aWR0aDowLjU7IiB3aWR0aD0iMzUiIHg9Ijc5NyIgeT0iNTAiLz48dGV4dCBmaWxsPSIjMDAwMDAwIiBmb250LWZhbWlseT0ic2Fucy1zZXJpZiIgZm9udC1zaXplPSIxNCIgbGVuZ3RoQWRqdXN0PSJzcGFjaW5nIiB0ZXh0TGVuZ3RoPSIyMSIgeD0iODA0IiB5PSI3MC4yMzQ0Ij5DR1M8L3RleHQ+PHJlY3QgZmlsbD0iI0UyRTJGMCIgaGVpZ2h0PSIyOC45ODQ0IiByeD0iMi41IiByeT0iMi41IiBzdHlsZT0ic3Ryb2tlOiMxODE4MTg7c3Ryb2tlLXdpZHRoOjAuNTsiIHdpZHRoPSIzNSIgeD0iNzk3IiB5PSI3NDMuMTc5NyIvPjx0ZXh0IGZpbGw9IiMwMDAwMDAiIGZvbnQtZmFtaWx5PSJzYW5zLXNlcmlmIiBmb250LXNpemU9IjE0IiBsZW5ndGhBZGp1c3Q9InNwYWNpbmciIHRleHRMZW5ndGg9IjIxIiB4PSI4MDQiIHk9Ijc2My40MTQxIj5DR1M8L3RleHQ+PHBvbHlnb24gZmlsbD0iIzE4MTgxOCIgcG9pbnRzPSIxMDksMTA1Ljg5ODQsMTE5LDEwOS44OTg0LDEwOSwxMTMuODk4NCwxMTMsMTA5Ljg5ODQiIHN0eWxlPSJzdHJva2U6IzE4MTgxODtzdHJva2Utd2lkdGg6MS4wOyIvPjxsaW5lIHN0eWxlPSJzdHJva2U6IzE4MTgxODtzdHJva2Utd2lkdGg6MS4wOyIgeDE9IjM3IiB4Mj0iMTE1IiB5MT0iMTA5Ljg5ODQiIHkyPSIxMDkuODk4NCIvPjx0ZXh0IGZpbGw9IiMwMDAwMDAiIGZvbnQtZmFtaWx5PSJzYW5zLXNlcmlmIiBmb250LXNpemU9IjEzIiBsZW5ndGhBZGp1c3Q9InNwYWNpbmciIHRleHRMZW5ndGg9IjYwIiB4PSI0NCIgeT0iMTA2LjI3MzQiPumAieaLqVN0dWR5PC90ZXh0Pjxwb2x5Z29uIGZpbGw9IiMxODE4MTgiIHBvaW50cz0iMjc2LDEzMy44MTI1LDI4NiwxMzcuODEyNSwyNzYsMTQxLjgxMjUsMjgwLDEzNy44MTI1IiBzdHlsZT0ic3Ryb2tlOiMxODE4MTg7c3Ryb2tlLXdpZHRoOjEuMDsiLz48bGluZSBzdHlsZT0ic3Ryb2tlOiMxODE4MTg7c3Ryb2tlLXdpZHRoOjEuMDsiIHgxPSIxMjEiIHgyPSIyODIiIHkxPSIxMzcuODEyNSIgeTI9IjEzNy44MTI1Ii8+PHRleHQgZmlsbD0iIzAwMDAwMCIgZm9udC1mYW1pbHk9InNhbnMtc2VyaWYiIGZvbnQtc2l6ZT0iMTMiIGxlbmd0aEFkanVzdD0ic3BhY2luZyIgdGV4dExlbmd0aD0iMTQzIiB4PSIxMjgiIHk9IjEzNC4xODc1Ij7pgInmi6npq5jnuqflupTnlKjvvIzov5vlhaXlupTnlKg8L3RleHQ+PHBhdGggZD0iTTI0MywxNTIuODEyNSBMMzY4LDE1Mi44MTI1IEwzNjgsMTU4LjcyNjYgTDM1OCwxNjguNzI2NiBMMjQzLDE2OC43MjY2IEwyNDMsMTUyLjgxMjUgIiBmaWxsPSIjRUVFRUVFIiBzdHlsZT0ic3Ryb2tlOiMwMDAwMDA7c3Ryb2tlLXdpZHRoOjEuNTsiLz48cmVjdCBmaWxsPSJub25lIiBoZWlnaHQ9IjU2LjgyODEiIHN0eWxlPSJzdHJva2U6IzAwMDAwMDtzdHJva2Utd2lkdGg6MS41OyIgd2lkdGg9IjIxNiIgeD0iMjQzIiB5PSIxNTIuODEyNSIvPjx0ZXh0IGZpbGw9IiMwMDAwMDAiIGZvbnQtZmFtaWx5PSJzYW5zLXNlcmlmIiBmb250LXNpemU9IjEzIiBmb250LXdlaWdodD0iYm9sZCIgbGVuZ3RoQWRqdXN0PSJzcGFjaW5nIiB0ZXh0TGVuZ3RoPSI4MCIgeD0iMjU4IiB5PSIxNjYuMTAxNiI+bGljZW5zZSDmoKHpqow8L3RleHQ+PGxpbmUgc3R5bGU9InN0cm9rZTojMTgxODE4O3N0cm9rZS13aWR0aDoxLjA7IiB4MT0iMjg4IiB4Mj0iMzMwIiB5MT0iMTg4LjY0MDYiIHkyPSIxODguNjQwNiIvPjxsaW5lIHN0eWxlPSJzdHJva2U6IzE4MTgxODtzdHJva2Utd2lkdGg6MS4wOyIgeDE9IjMzMCIgeDI9IjMzMCIgeTE9IjE4OC42NDA2IiB5Mj0iMjAxLjY0MDYiLz48bGluZSBzdHlsZT0ic3Ryb2tlOiMxODE4MTg7c3Ryb2tlLXdpZHRoOjEuMDsiIHgxPSIyODkiIHgyPSIzMzAiIHkxPSIyMDEuNjQwNiIgeTI9IjIwMS42NDA2Ii8+PHBvbHlnb24gZmlsbD0iIzE4MTgxOCIgcG9pbnRzPSIyOTksMTk3LjY0MDYsMjg5LDIwMS42NDA2LDI5OSwyMDUuNjQwNiwyOTUsMjAxLjY0MDYiIHN0eWxlPSJzdHJva2U6IzE4MTgxODtzdHJva2Utd2lkdGg6MS4wOyIvPjx0ZXh0IGZpbGw9IiMwMDAwMDAiIGZvbnQtZmFtaWx5PSJzYW5zLXNlcmlmIiBmb250LXNpemU9IjEzIiBsZW5ndGhBZGp1c3Q9InNwYWNpbmciIHRleHRMZW5ndGg9IjE1MiIgeD0iMjk1IiB5PSIxODUuMDE1NiI+RkXlhoXpg6jov5vooYxsaWNlbnNl55qE5qCh6aqMPC90ZXh0Pjxwb2x5Z29uIGZpbGw9IiMxODE4MTgiIHBvaW50cz0iNTM3LDIzMi41NTQ3LDU0NywyMzYuNTU0Nyw1MzcsMjQwLjU1NDcsNTQxLDIzNi41NTQ3IiBzdHlsZT0ic3Ryb2tlOiMxODE4MTg7c3Ryb2tlLXdpZHRoOjEuMDsiLz48bGluZSBzdHlsZT0ic3Ryb2tlOiMxODE4MTg7c3Ryb2tlLXdpZHRoOjEuMDsiIHgxPSIyODgiIHgyPSI1NDMiIHkxPSIyMzYuNTU0NyIgeTI9IjIzNi41NTQ3Ii8+PHRleHQgZmlsbD0iIzAwMDAwMCIgZm9udC1mYW1pbHk9InNhbnMtc2VyaWYiIGZvbnQtc2l6ZT0iMTMiIGxlbmd0aEFkanVzdD0ic3BhY2luZyIgdGV4dExlbmd0aD0iMTk1IiB4PSIyOTUiIHk9IjIzMi45Mjk3Ij7osIPnlKjmjqXlj6PvvIzpgJrnn6XmnI3liqHlkI7nq6/lh4blpIfmlbDmja48L3RleHQ+PHBvbHlnb24gZmlsbD0iIzE4MTgxOCIgcG9pbnRzPSI4MDIuNSwyNjAuNDY4OCw4MTIuNSwyNjQuNDY4OCw4MDIuNSwyNjguNDY4OCw4MDYuNSwyNjQuNDY4OCIgc3R5bGU9InN0cm9rZTojMTgxODE4O3N0cm9rZS13aWR0aDoxLjA7Ii8+PGxpbmUgc3R5bGU9InN0cm9rZTojMTgxODE4O3N0cm9rZS13aWR0aDoxLjA7IiB4MT0iNTQ5IiB4Mj0iODA4LjUiIHkxPSIyNjQuNDY4OCIgeTI9IjI2NC40Njg4Ii8+PHRleHQgZmlsbD0iIzAwMDAwMCIgZm9udC1mYW1pbHk9InNhbnMtc2VyaWYiIGZvbnQtc2l6ZT0iMTMiIGxlbmd0aEFkanVzdD0ic3BhY2luZyIgdGV4dExlbmd0aD0iODAiIHg9IjU1NiIgeT0iMjYwLjg0MzgiPkRpY29tV2Vi5o6l5Y+jPC90ZXh0Pjxwb2x5Z29uIGZpbGw9IiMxODE4MTgiIHBvaW50cz0iNTYwLDI4OC4zODI4LDU1MCwyOTIuMzgyOCw1NjAsMjk2LjM4MjgsNTU2LDI5Mi4zODI4IiBzdHlsZT0ic3Ryb2tlOiMxODE4MTg7c3Ryb2tlLXdpZHRoOjEuMDsiLz48bGluZSBzdHlsZT0ic3Ryb2tlOiMxODE4MTg7c3Ryb2tlLXdpZHRoOjEuMDsiIHgxPSI1NTQiIHgyPSI4MTMuNSIgeTE9IjI5Mi4zODI4IiB5Mj0iMjkyLjM4MjgiLz48dGV4dCBmaWxsPSIjMDAwMDAwIiBmb250LWZhbWlseT0ic2Fucy1zZXJpZiIgZm9udC1zaXplPSIxMyIgbGVuZ3RoQWRqdXN0PSJzcGFjaW5nIiB0ZXh0TGVuZ3RoPSI4NiIgeD0iNTY2IiB5PSIyODguNzU3OCI+6L+U5ZueRElDT03mlbDmja48L3RleHQ+PHBvbHlnb24gZmlsbD0iIzE4MTgxOCIgcG9pbnRzPSIyOTksMzE2LjI5NjksMjg5LDMyMC4yOTY5LDI5OSwzMjQuMjk2OSwyOTUsMzIwLjI5NjkiIHN0eWxlPSJzdHJva2U6IzE4MTgxODtzdHJva2Utd2lkdGg6MS4wOyIvPjxsaW5lIHN0eWxlPSJzdHJva2U6IzE4MTgxODtzdHJva2Utd2lkdGg6MS4wOyIgeDE9IjI5MyIgeDI9IjU0OCIgeTE9IjMyMC4yOTY5IiB5Mj0iMzIwLjI5NjkiLz48dGV4dCBmaWxsPSIjMDAwMDAwIiBmb250LWZhbWlseT0ic2Fucy1zZXJpZiIgZm9udC1zaXplPSIxMyIgbGVuZ3RoQWRqdXN0PSJzcGFjaW5nIiB0ZXh0TGVuZ3RoPSIxOTAiIHg9IjMwNSIgeT0iMzE2LjY3MTkiPui/lOWbnlJEUOi/nuaOpeS/oeaBr++8jOS7peWPiuWFtuS7luS/oeaBrzwvdGV4dD48bGluZSBzdHlsZT0ic3Ryb2tlOiMxODE4MTg7c3Ryb2tlLXdpZHRoOjEuMDsiIHgxPSIyODgiIHgyPSIzMzAiIHkxPSIzNDguMjEwOSIgeTI9IjM0OC4yMTA5Ii8+PGxpbmUgc3R5bGU9InN0cm9rZTojMTgxODE4O3N0cm9rZS13aWR0aDoxLjA7IiB4MT0iMzMwIiB4Mj0iMzMwIiB5MT0iMzQ4LjIxMDkiIHkyPSIzNjEuMjEwOSIvPjxsaW5lIHN0eWxlPSJzdHJva2U6IzE4MTgxODtzdHJva2Utd2lkdGg6MS4wOyIgeDE9IjI4OSIgeDI9IjMzMCIgeTE9IjM2MS4yMTA5IiB5Mj0iMzYxLjIxMDkiLz48cG9seWdvbiBmaWxsPSIjMTgxODE4IiBwb2ludHM9IjI5OSwzNTcuMjEwOSwyODksMzYxLjIxMDksMjk5LDM2NS4yMTA5LDI5NSwzNjEuMjEwOSIgc3R5bGU9InN0cm9rZTojMTgxODE4O3N0cm9rZS13aWR0aDoxLjA7Ii8+PHRleHQgZmlsbD0iIzAwMDAwMCIgZm9udC1mYW1pbHk9InNhbnMtc2VyaWYiIGZvbnQtc2l6ZT0iMTMiIGxlbmd0aEFkanVzdD0ic3BhY2luZyIgdGV4dExlbmd0aD0iMTE3IiB4PSIyOTUiIHk9IjM0NC41ODU5Ij7pgInmi6nlhbfkvZPnmoTkuInmlrnlupTnlKg8L3RleHQ+PHBvbHlnb24gZmlsbD0iIzE4MTgxOCIgcG9pbnRzPSI3MjUuNSwzODUuMTI1LDczNS41LDM4OS4xMjUsNzI1LjUsMzkzLjEyNSw3MjkuNSwzODkuMTI1IiBzdHlsZT0ic3Ryb2tlOiMxODE4MTg7c3Ryb2tlLXdpZHRoOjEuMDsiLz48bGluZSBzdHlsZT0ic3Ryb2tlOiMxODE4MTg7c3Ryb2tlLXdpZHRoOjEuMDsiIHgxPSIyODgiIHgyPSI3MzEuNSIgeTE9IjM4OS4xMjUiIHkyPSIzODkuMTI1Ii8+PHRleHQgZmlsbD0iIzAwMDAwMCIgZm9udC1mYW1pbHk9InNhbnMtc2VyaWYiIGZvbnQtc2l6ZT0iMTMiIGxlbmd0aEFkanVzdD0ic3BhY2luZyIgdGV4dExlbmd0aD0iMjY4IiB4PSIyOTUiIHk9IjM4NS41Ij7pgJrov4dSRFDlkK/liqjkuInmlrnlupTnlKjku6Xlj4rpgJrov4flkb3ku6TooYzovpPlhaXlj4LmlbA8L3RleHQ+PHBvbHlnb24gZmlsbD0iIzE4MTgxOCIgcG9pbnRzPSI3MjUuNSw0MTMuMDM5MSw3MzUuNSw0MTcuMDM5MSw3MjUuNSw0MjEuMDM5MSw3MjkuNSw0MTcuMDM5MSIgc3R5bGU9InN0cm9rZTojMTgxODE4O3N0cm9rZS13aWR0aDoxLjA7Ii8+PGxpbmUgc3R5bGU9InN0cm9rZTojMTgxODE4O3N0cm9rZS13aWR0aDoxLjA7IiB4MT0iMjg4IiB4Mj0iNzMxLjUiIHkxPSI0MTcuMDM5MSIgeTI9IjQxNy4wMzkxIi8+PHRleHQgZmlsbD0iIzAwMDAwMCIgZm9udC1mYW1pbHk9InNhbnMtc2VyaWYiIGZvbnQtc2l6ZT0iMTMiIGxlbmd0aEFkanVzdD0ic3BhY2luZyIgdGV4dExlbmd0aD0iMjM0IiB4PSIyOTUiIHk9IjQxMy40MTQxIj7lhbHkuqvmnKzlnLDnm5jnrKbvvIzkvZzkuLrkv53lrZjnu5PmnpznmoTovpPlh7rot6/lvoQ8L3RleHQ+PHBvbHlnb24gZmlsbD0iIzE4MTgxOCIgcG9pbnRzPSIyOTksNDQwLjk1MzEsMjg5LDQ0NC45NTMxLDI5OSw0NDguOTUzMSwyOTUsNDQ0Ljk1MzEiIHN0eWxlPSJzdHJva2U6IzE4MTgxODtzdHJva2Utd2lkdGg6MS4wOyIvPjxsaW5lIHN0eWxlPSJzdHJva2U6IzE4MTgxODtzdHJva2Utd2lkdGg6MS4wOyIgeDE9IjI5MyIgeDI9IjYzNSIgeTE9IjQ0NC45NTMxIiB5Mj0iNDQ0Ljk1MzEiLz48dGV4dCBmaWxsPSIjMDAwMDAwIiBmb250LWZhbWlseT0ic2Fucy1zZXJpZiIgZm9udC1zaXplPSIxMyIgbGVuZ3RoQWRqdXN0PSJzcGFjaW5nIiB0ZXh0TGVuZ3RoPSIxMDQiIHg9IjMwNSIgeT0iNDQxLjMyODEiPuaYvuekuui/nOeoi+S4ieaWueW6lOeUqDwvdGV4dD48cGF0aCBkPSJNMTAsNDU5Ljk1MzEgTDgzLDQ1OS45NTMxIEw4Myw0NjUuODY3MiBMNzMsNDc1Ljg2NzIgTDEwLDQ3NS44NjcyIEwxMCw0NTkuOTUzMSAiIGZpbGw9IiNFRUVFRUUiIHN0eWxlPSJzdHJva2U6IzAwMDAwMDtzdHJva2Utd2lkdGg6MS41OyIvPjxyZWN0IGZpbGw9Im5vbmUiIGhlaWdodD0iMTEyLjY1NjMiIHN0eWxlPSJzdHJva2U6IzAwMDAwMDtzdHJva2Utd2lkdGg6MS41OyIgd2lkdGg9IjY3OCIgeD0iMTAiIHk9IjQ1OS45NTMxIi8+PHRleHQgZmlsbD0iIzAwMDAwMCIgZm9udC1mYW1pbHk9InNhbnMtc2VyaWYiIGZvbnQtc2l6ZT0iMTMiIGZvbnQtd2VpZ2h0PSJib2xkIiBsZW5ndGhBZGp1c3Q9InNwYWNpbmciIHRleHRMZW5ndGg9IjI4IiB4PSIyNSIgeT0iNDczLjI0MjIiPnNhdmU8L3RleHQ+PHBvbHlnb24gZmlsbD0iIzE4MTgxOCIgcG9pbnRzPSI2MjQsNDkxLjc4MTMsNjM0LDQ5NS43ODEzLDYyNCw0OTkuNzgxMyw2MjgsNDk1Ljc4MTMiIHN0eWxlPSJzdHJva2U6IzE4MTgxODtzdHJva2Utd2lkdGg6MS4wOyIvPjxsaW5lIHN0eWxlPSJzdHJva2U6IzE4MTgxODtzdHJva2Utd2lkdGg6MS4wOyIgeDE9IjM3IiB4Mj0iNjMwIiB5MT0iNDk1Ljc4MTMiIHkyPSI0OTUuNzgxMyIvPjx0ZXh0IGZpbGw9IiMwMDAwMDAiIGZvbnQtZmFtaWx5PSJzYW5zLXNlcmlmIiBmb250LXNpemU9IjEzIiBsZW5ndGhBZGp1c3Q9InNwYWNpbmciIHRleHRMZW5ndGg9IjExNyIgeD0iNDQiIHk9IjQ5Mi4xNTYzIj7kv53lrZjnu5PmnpzliLDlhbHkuqvnm67lvZU8L3RleHQ+PHBvbHlnb24gZmlsbD0iIzE4MTgxOCIgcG9pbnRzPSIyOTksNTE5LjY5NTMsMjg5LDUyMy42OTUzLDI5OSw1MjcuNjk1MywyOTUsNTIzLjY5NTMiIHN0eWxlPSJzdHJva2U6IzE4MTgxODtzdHJva2Utd2lkdGg6MS4wOyIvPjxsaW5lIHN0eWxlPSJzdHJva2U6IzE4MTgxODtzdHJva2Utd2lkdGg6MS4wOyIgeDE9IjI5MyIgeDI9IjYzNSIgeTE9IjUyMy42OTUzIiB5Mj0iNTIzLjY5NTMiLz48dGV4dCBmaWxsPSIjMDAwMDAwIiBmb250LWZhbWlseT0ic2Fucy1zZXJpZiIgZm9udC1zaXplPSIxMyIgbGVuZ3RoQWRqdXN0PSJzcGFjaW5nIiB0ZXh0TGVuZ3RoPSIxMzEiIHg9IjMwNSIgeT0iNTIwLjA3MDMiPumAmui/h+WFseS6q+S/neWtmOWIsEZF56OB55uYPC90ZXh0PjxsaW5lIHN0eWxlPSJzdHJva2U6IzE4MTgxODtzdHJva2Utd2lkdGg6MS4wOyIgeDE9IjI4OCIgeDI9IjMzMCIgeTE9IjU1MS42MDk0IiB5Mj0iNTUxLjYwOTQiLz48bGluZSBzdHlsZT0ic3Ryb2tlOiMxODE4MTg7c3Ryb2tlLXdpZHRoOjEuMDsiIHgxPSIzMzAiIHgyPSIzMzAiIHkxPSI1NTEuNjA5NCIgeTI9IjU2NC42MDk0Ii8+PGxpbmUgc3R5bGU9InN0cm9rZTojMTgxODE4O3N0cm9rZS13aWR0aDoxLjA7IiB4MT0iMjg5IiB4Mj0iMzMwIiB5MT0iNTY0LjYwOTQiIHkyPSI1NjQuNjA5NCIvPjxwb2x5Z29uIGZpbGw9IiMxODE4MTgiIHBvaW50cz0iMjk5LDU2MC42MDk0LDI4OSw1NjQuNjA5NCwyOTksNTY4LjYwOTQsMjk1LDU2NC42MDk0IiBzdHlsZT0ic3Ryb2tlOiMxODE4MTg7c3Ryb2tlLXdpZHRoOjEuMDsiLz48dGV4dCBmaWxsPSIjMDAwMDAwIiBmb250LWZhbWlseT0ic2Fucy1zZXJpZiIgZm9udC1zaXplPSIxMyIgbGVuZ3RoQWRqdXN0PSJzcGFjaW5nIiB0ZXh0TGVuZ3RoPSIyNDciIHg9IjI5NSIgeT0iNTQ3Ljk4NDQiPuW9kuaho++8jOS7juWFseS6q+ebruW9leivu+WPlui/m+ihjOe7k+aenOeahOW9kuaho+S/neWtmDwvdGV4dD48cGF0aCBkPSJNMTAsNTg2LjYwOTQgTDgxLDU4Ni42MDk0IEw4MSw1OTIuNTIzNCBMNzEsNjAyLjUyMzQgTDEwLDYwMi41MjM0IEwxMCw1ODYuNjA5NCAiIGZpbGw9IiNFRUVFRUUiIHN0eWxlPSJzdHJva2U6IzAwMDAwMDtzdHJva2Utd2lkdGg6MS41OyIvPjxyZWN0IGZpbGw9Im5vbmUiIGhlaWdodD0iMTQwLjU3MDMiIHN0eWxlPSJzdHJva2U6IzAwMDAwMDtzdHJva2Utd2lkdGg6MS41OyIgd2lkdGg9Ijc4NyIgeD0iMTAiIHk9IjU4Ni42MDk0Ii8+PHRleHQgZmlsbD0iIzAwMDAwMCIgZm9udC1mYW1pbHk9InNhbnMtc2VyaWYiIGZvbnQtc2l6ZT0iMTMiIGZvbnQtd2VpZ2h0PSJib2xkIiBsZW5ndGhBZGp1c3Q9InNwYWNpbmciIHRleHRMZW5ndGg9IjI2IiB4PSIyNSIgeT0iNTk5Ljg5ODQiPlF1aXQ8L3RleHQ+PHBvbHlnb24gZmlsbD0iIzE4MTgxOCIgcG9pbnRzPSIyNzYsNjE4LjQzNzUsMjg2LDYyMi40Mzc1LDI3Niw2MjYuNDM3NSwyODAsNjIyLjQzNzUiIHN0eWxlPSJzdHJva2U6IzE4MTgxODtzdHJva2Utd2lkdGg6MS4wOyIvPjxsaW5lIHN0eWxlPSJzdHJva2U6IzE4MTgxODtzdHJva2Utd2lkdGg6MS4wOyIgeDE9IjM3IiB4Mj0iMjgyIiB5MT0iNjIyLjQzNzUiIHkyPSI2MjIuNDM3NSIvPjx0ZXh0IGZpbGw9IiMwMDAwMDAiIGZvbnQtZmFtaWx5PSJzYW5zLXNlcmlmIiBmb250LXNpemU9IjEzIiBsZW5ndGhBZGp1c3Q9InNwYWNpbmciIHRleHRMZW5ndGg9IjUyIiB4PSI0NCIgeT0iNjE4LjgxMjUiPumAgOWHuuW6lOeUqDwvdGV4dD48cG9seWdvbiBmaWxsPSIjMTgxODE4IiBwb2ludHM9IjcyNS41LDY0Ni4zNTE2LDczNS41LDY1MC4zNTE2LDcyNS41LDY1NC4zNTE2LDcyOS41LDY1MC4zNTE2IiBzdHlsZT0ic3Ryb2tlOiMxODE4MTg7c3Ryb2tlLXdpZHRoOjEuMDsiLz48bGluZSBzdHlsZT0ic3Ryb2tlOiMxODE4MTg7c3Ryb2tlLXdpZHRoOjEuMDsiIHgxPSIyODgiIHgyPSI3MzEuNSIgeTE9IjY1MC4zNTE2IiB5Mj0iNjUwLjM1MTYiLz48dGV4dCBmaWxsPSIjMDAwMDAwIiBmb250LWZhbWlseT0ic2Fucy1zZXJpZiIgZm9udC1zaXplPSIxMyIgbGVuZ3RoQWRqdXN0PSJzcGFjaW5nIiB0ZXh0TGVuZ3RoPSI1MiIgeD0iMjk1IiB5PSI2NDYuNzI2NiI+5YWz6Zet5Lya6K+dPC90ZXh0Pjxwb2x5Z29uIGZpbGw9IiMxODE4MTgiIHBvaW50cz0iNTM3LDY3NC4yNjU2LDU0Nyw2NzguMjY1Niw1MzcsNjgyLjI2NTYsNTQxLDY3OC4yNjU2IiBzdHlsZT0ic3Ryb2tlOiMxODE4MTg7c3Ryb2tlLXdpZHRoOjEuMDsiLz48bGluZSBzdHlsZT0ic3Ryb2tlOiMxODE4MTg7c3Ryb2tlLXdpZHRoOjEuMDsiIHgxPSIyODgiIHgyPSI1NDMiIHkxPSI2NzguMjY1NiIgeTI9IjY3OC4yNjU2Ii8+PHRleHQgZmlsbD0iIzAwMDAwMCIgZm9udC1mYW1pbHk9InNhbnMtc2VyaWYiIGZvbnQtc2l6ZT0iMTMiIGxlbmd0aEFkanVzdD0ic3BhY2luZyIgdGV4dExlbmd0aD0iMTE3IiB4PSIyOTUiIHk9IjY3NC42NDA2Ij7pgJrnn6XlkI7nq6/vvIzlupTnlKjmuIXnkIY8L3RleHQ+PGxpbmUgc3R5bGU9InN0cm9rZTojMTgxODE4O3N0cm9rZS13aWR0aDoxLjA7IiB4MT0iMjg4IiB4Mj0iMzMwIiB5MT0iNzA2LjE3OTciIHkyPSI3MDYuMTc5NyIvPjxsaW5lIHN0eWxlPSJzdHJva2U6IzE4MTgxODtzdHJva2Utd2lkdGg6MS4wOyIgeDE9IjMzMCIgeDI9IjMzMCIgeTE9IjcwNi4xNzk3IiB5Mj0iNzE5LjE3OTciLz48bGluZSBzdHlsZT0ic3Ryb2tlOiMxODE4MTg7c3Ryb2tlLXdpZHRoOjEuMDsiIHgxPSIyODkiIHgyPSIzMzAiIHkxPSI3MTkuMTc5NyIgeTI9IjcxOS4xNzk3Ii8+PHBvbHlnb24gZmlsbD0iIzE4MTgxOCIgcG9pbnRzPSIyOTksNzE1LjE3OTcsMjg5LDcxOS4xNzk3LDI5OSw3MjMuMTc5NywyOTUsNzE5LjE3OTciIHN0eWxlPSJzdHJva2U6IzE4MTgxODtzdHJva2Utd2lkdGg6MS4wOyIvPjx0ZXh0IGZpbGw9IiMwMDAwMDAiIGZvbnQtZmFtaWx5PSJzYW5zLXNlcmlmIiBmb250LXNpemU9IjEzIiBsZW5ndGhBZGp1c3Q9InNwYWNpbmciIHRleHRMZW5ndGg9Ijc4IiB4PSIyOTUiIHk9IjcwMi41NTQ3Ij7liY3nq6/lupTnlKjpgIDlh7o8L3RleHQ+PCEtLU1ENT1bOTJmNDU2M2I5MmNmNGUzZDBlYWU2Y2UwMzgyZjg1MmZdCkBzdGFydHVtbA0KYWN0b3IgICAgICAg55So5oi3IGFzIFVzZXINCnBhcnRpY2lwYW50IFBBIGFzIFBBDQpwYXJ0aWNpcGFudCDlupTnlKjliY3nq68gYXMgRkUNCnBhcnRpY2lwYW50IOacjeWKoeWQjuerryBhcyBCRQ0KcGFydGljaXBhbnQg56ys5LiJ5pa55bqU55SoIGFzIFRBDQpwYXJ0aWNpcGFudCBXaW5kb3dTZXJ2ZXIgYXMgV1MNCg0KVXNlciAgICAtPiBQQTogICAgICDpgInmi6lTdHVkeQ0KUEEgICAgICAtPiBGRTogICAgICDpgInmi6npq5jnuqflupTnlKjvvIzov5vlhaXlupTnlKgNCg0KZ3JvdXAgbGljZW5zZSDmoKHpqowNCg0KRkUgICAgICAtPiBGRTogICAgICBGReWGhemDqOi/m+ihjGxpY2Vuc2XnmoTmoKHpqowNCg0KZW5kDQoNCkZFICAgICAgLT4gQkU6ICAgICAg6LCD55So5o6l5Y+j77yM6YCa55+l5pyN5Yqh5ZCO56uv5YeG5aSH5pWw5o2uDQpCRSAgICAgIC0+IENHUzogICAgIERpY29tV2Vi5o6l5Y+jDQpDR1MgICAgIC0+IEJFOiAgICAgIOi/lOWbnkRJQ09N5pWw5o2uDQpCRSAgICAgIC0+IEZFOiAgICAgIOi/lOWbnlJEUOi/nuaOpeS/oeaBr++8jOS7peWPiuWFtuS7luS/oeaBrw0KRkUgICAgICAtPiBGRTogICAgICDpgInmi6nlhbfkvZPnmoTkuInmlrnlupTnlKgNCkZFICAgICAgLT4gV1M6ICAgICAg6YCa6L+HUkRQ5ZCv5Yqo5LiJ5pa55bqU55So5Lul5Y+K6YCa6L+H5ZG95Luk6KGM6L6T5YWl5Y+C5pWwDQpGRSAgICAgIC0+IFdTOiAgICAgIOWFseS6q+acrOWcsOebmOespu+8jOS9nOS4uuS/neWtmOe7k+aenOeahOi+k+WHuui3r+W+hA0KVEEgICAgICAtPiBGRTogICAgICDmmL7npLrov5znqIvkuInmlrnlupTnlKgNCg0KZ3JvdXAgc2F2ZQ0KICAgIFVzZXIgICAgLT4gVEE6ICAgICAg5L+d5a2Y57uT5p6c5Yiw5YWx5Lqr55uu5b2VDQogICAgVEEgICAgICAtPiBGRTogICAgICDpgJrov4flhbHkuqvkv53lrZjliLBGReejgeebmA0KICAgIEZFICAgICAgLT4gRkU6ICAgICAg5b2S5qGj77yM5LuO5YWx5Lqr55uu5b2V6K+75Y+W6L+b6KGM57uT5p6c55qE5b2S5qGj5L+d5a2YDQplbmQNCg0KZ3JvdXAgUXVpdA0KICAgIFVzZXIgICAgLT4gRkU6ICAgICAg6YCA5Ye65bqU55SoDQogICAgRkUgICAgICAtPiBXUzogICAgICDlhbPpl63kvJror50NCiAgICBGRSAgICAgIC0+IEJFOiAgICAgIOmAmuefpeWQjuerr++8jOW6lOeUqOa4heeQhg0KICAgIEZFICAgICAgLT4gRkU6ICAgICAg5YmN56uv5bqU55So6YCA5Ye6DQplbmQNCkBlbmR1bWwNCgpQbGFudFVNTCB2ZXJzaW9uIDEuMjAyMi4yKFNhdCBNYXIgMDUgMTY6MzA6MTkgR01UIDIwMjIpCkphdmEgUnVudGltZTogT3BlbkpESyBSdW50aW1lIEVudmlyb25tZW50CkpWTTogT3BlbkpESyA2NC1CaXQgU2VydmVyIFZNCkRlZmF1bHQgRW5jb2Rpbmc6IFVURi04Ckxhbmd1YWdlOiBlbgpDb3VudHJ5OiBVUwotLT48L2c+PC9zdmc+;" vertex="1" parent="1">
            <mxGeometry x="60" y="110" width="838" height="823" as="geometry" />
          </mxCell>
        </UserObject>
      </root>
    </mxGraphModel>
  </diagram>
</mxfile>
